<svg xmlns="http://www.w3.org/2000/svg" width="32" height="32" viewBox="0 0 32 32">
  <g id="upload-file" transform="translate(12 -5)">
    <g id="File" transform="translate(-12 5)">
      <g id="file_upload_line">
        <path id="MingCute" d="M32,0V32H0V0ZM16.791,31.01l-.015,0-.095.047-.025,0h0l-.02,0-.095-.047a.029.029,0,0,0-.031.007l-.005.015-.023.57.007.027.015.016.138.1.02.005h0l.016-.005.138-.1.017-.021h0l0-.022-.023-.57a.029.029,0,0,0-.021-.024Zm.353-.15-.019,0-.246.123L16.867,31h0l0,.015.024.573.006.017h0l.011.009.268.124a.033.033,0,0,0,.038-.011l.005-.019-.045-.82a.034.034,0,0,0-.026-.028Zm-.954,0a.031.031,0,0,0-.037.007l-.008.019-.045.82a.03.03,0,0,0,.022.031l.021,0,.268-.124.013-.011h0l.005-.016.024-.573,0-.017h0l-.013-.012Z" fill="none"/>
        <path id="形状" d="M14.984,2a2.172,2.172,0,0,1,1.472.588l.149.15,5.058,5.555a2.629,2.629,0,0,1,.662,1.558l.009.221V24.65a2.433,2.433,0,0,1-2.121,2.51l-.171.007H6.292a2.392,2.392,0,0,1-2.285-2.329L4,24.65V4.517a2.433,2.433,0,0,1,2.121-2.51L6.292,2ZM13.167,4.517H6.292V24.65h13.75V12.067H14.885a1.809,1.809,0,0,1-1.719-1.887Zm-.81,9.026a1.071,1.071,0,0,1,1.513-.1l.108.1,2.431,2.669a1.347,1.347,0,0,1,0,1.78,1.071,1.071,0,0,1-1.512.1l-.108-.1-.475-.521v3.4a1.206,1.206,0,0,1-1.146,1.258,1.191,1.191,0,0,1-1.138-1.112l-.008-.147v-3.4l-.475.521a1.075,1.075,0,0,1-1.62,0,1.351,1.351,0,0,1-.1-1.661l.1-.119Zm3.1-8.5V9.55h4.109Z" transform="translate(2.833 1.417)" fill="#3485ff"/>
      </g>
    </g>
  </g>
</svg>
